<svg xmlns="http://www.w3.org/2000/svg" width="175" height="26"><g fill="none" fill-rule="evenodd"><path fill="#FF3029" d="M6.5 13.3L3 21H.6l3.7-8.2a5.3 5.3 0 0 1-2.1-2c-.6-.8-.8-2-.8-3.5 0-1 .1-2 .4-2.8.3-.8.8-1.4 1.3-2A4 4 0 0 1 5 1.4C5.7 1 6.4 1 7.2 1h3.2v20H8.3v-7.7H6.5zM8.3 2.8H7c-.4 0-.8 0-1.2.2-.5.2-.8.4-1.1.8-.4.3-.6.8-.8 1.4-.2.5-.3 1.2-.3 2 0 .9 0 1.6.3 2.1.1.5.4 1 .7 1.3l1 .7c.5.2 1 .2 1.4.2h1.2V2.8z"/><path fill="#000" d="M32 23.8h-2V21h-6v2.8h-2v-4.6h1l.7-2.5a29.2 29.2 0 0 0 .6-5.7V6.9H31v12.3h1v4.6zm9.5-3.8a5.3 5.3 0 0 1-3.4 1.2 4 4 0 0 1-3.5-1.7 8.3 8.3 0 0 1-1.3-5 14.8 14.8 0 0 1 1-5.6c.4-.7.8-1.2 1.4-1.6a3 3 0 0 1 1.9-.6c.6 0 1.1.1 1.6.3.5.3.9.7 1.2 1.2.4.5.6 1.2.8 2 .2.8.3 1.8.3 3v1.2h-5.9a8 8 0 0 0 .7 3.7c.4.8 1 1.2 2 1.2a4 4 0 0 0 1.6-.3l1.1-.6.5 1.6zM20.8 7v14h-2.2v-6.3h-3.2V21h-2.2V6.9h2.2v6h3.2v-6h2.2zm25.1 7v7h-2.2V6.9H46v6.5L49.3 7h2.2L48 13.5l4 7.5h-2.4L46 14zm11.2 7.3c-1.5 0-2.6-.6-3.5-1.8-.9-1.2-1.3-3-1.3-5.5l.3-3a7 7 0 0 1 1-2.2c.4-.7 1-1.1 1.5-1.5.7-.3 1.4-.5 2.2-.5.7 0 1.2 0 1.6.2l1 .5-.3 2-1-.6a3 3 0 0 0-1.3-.3c-.8 0-1.4.5-2 1.3-.4 1-.7 2.2-.7 4 0 1.8.2 3.2.6 4.1.5 1 1.1 1.5 2 1.5.5 0 1-.1 1.4-.3a4 4 0 0 0 1-.6l.5 1.6-1.3.8a4 4 0 0 1-1.7.3zM28.8 8.7h-2.5v.2a78 78 0 0 1-.6 7.9l-.7 2.4h3.8V8.7zm8.8-.2c-.7 0-1.1.4-1.4 1.1-.3.8-.5 1.8-.6 3h3.7a15.4 15.4 0 0 0-.4-3 2 2 0 0 0-.5-.8c-.2-.2-.5-.3-.8-.3zM74.2 2h-6v19h-1.4V1h8.8v20h-1.4V2.1zm5.1 12c0 2 .3 3.5.8 4.5s1.3 1.5 2.3 1.5a3.2 3.2 0 0 0 2.1-.7l.8-.8.4 1c-.2.4-.5.7-.8.9l-1 .5a4 4 0 0 1-1.5.3c-1.5 0-2.6-.7-3.3-2-.7-1.2-1-3-1-5.4 0-1.1 0-2.1.2-3 .2-1 .5-1.7.9-2.4.3-.6.8-1 1.3-1.4a3 3 0 0 1 1.6-.5 3 3 0 0 1 1.7.5c.5.3.9.8 1.2 1.4.3.6.5 1.4.7 2.4v3.3h-6.4zm2.8-6.4c-.7 0-1.4.5-1.9 1.4-.5 1-.8 2.3-.9 4h5.1a8 8 0 0 0-.4-4c-.5-.9-1-1.3-1.8-1.3zm10 12.5c.9 0 1.6-.5 2.1-1.6.6-1 .9-2.7.9-5a12 12 0 0 0-.7-4.3c-.5-1-1.2-1.5-2-1.5-.3 0-.6 0-.9.2l-.8.6a5 5 0 0 0-.7 1l-.5 1v8c.3.5.6 1 1 1.2.4.3 1 .4 1.6.4zm0 1a3 3 0 0 1-2.6-1.2v5.4h-1.3V6.9h1.1l.1 2.3c.3-.7.8-1.3 1.3-1.8s1.2-.8 2-.8c.5 0 1 .2 1.5.5s.9.8 1.2 1.4a12.7 12.7 0 0 1 1 5 11 11 0 0 1-1.2 5.8c-.8 1.3-1.9 2-3.2 2zm7.4-7c0 2 .3 3.4.8 4.4.5 1 1.2 1.5 2.3 1.5a3.2 3.2 0 0 0 2-.7c.4-.2.6-.5.8-.8l.4 1c-.2.4-.5.7-.8.9l-1 .5a4 4 0 0 1-1.5.3c-1.5 0-2.6-.7-3.3-2-.7-1.2-1-3-1-5.4 0-1.1 0-2.1.3-3 .2-1 .5-1.7.8-2.4.4-.6.8-1 1.3-1.4a3 3 0 0 1 1.7-.5 3 3 0 0 1 1.6.5c.5.3 1 .8 1.2 1.4.4.6.6 1.4.7 2.4.1 1 .2 2 0 3.3h-6.3zm2.8-6.5c-.8 0-1.4.5-2 1.4-.5 1-.8 2.3-.8 4h5.1a8 8 0 0 0-.5-4.1c-.5-.9-1.1-1.3-1.8-1.3zm7.3.3v13h-1.3v-14h6v1h-4.7zm10.1 13.3c-.6 0-1.2-.2-1.7-.5s-1-.7-1.3-1.3a10 10 0 0 1-1-2.3 15.1 15.1 0 0 1 .1-6.3c.2-1 .5-1.7.9-2.3a3.4 3.4 0 0 1 3-2c.6 0 1.2.2 1.7.5.6.3 1 .7 1.4 1.3.4.6.7 1.4.9 2.3.2.9.3 2 .3 3.2 0 1.1 0 2.2-.3 3.1-.2 1-.5 1.7-1 2.3-.3.7-.7 1.1-1.3 1.5-.5.3-1 .5-1.7.5zm0-1c.8 0 1.6-.6 2.1-1.6.6-1 1-2.6 1-4.8 0-1-.2-2-.3-2.8a7 7 0 0 0-.7-2 2 2 0 0 0-1-1c-.3-.3-.7-.4-1-.4-.9 0-1.6.5-2.2 1.5-.6 1-.9 2.6-.9 4.7a13 13 0 0 0 .9 4.9c.3.4.6.8 1 1 .3.3.7.4 1.1.4zm6.7.7v-14h3c1.3 0 2.2.3 2.9.9.6.5 1 1.4 1 2.5a5 5 0 0 1-.5 2c-.3.5-.8 1-1.5 1.2.9.3 1.5.7 2 1.3.4.6.6 1.3.6 2.1 0 1.4-.4 2.5-1.2 3.1a5 5 0 0 1-3.2 1h-3zm1.3-13v5.2h1.7c.7 0 1.4-.3 1.9-.7.4-.4.7-1.2.7-2.1 0-1-.2-1.6-.7-2a3 3 0 0 0-2-.5h-1.6zm0 6.1v6h1.8c.9 0 1.6-.2 2.2-.7.6-.4.9-1.2.9-2.3a3 3 0 0 0-.8-2.2 4 4 0 0 0-2.4-.7h-1.7zm12.1 7.2c-.6 0-1.2-.2-1.7-.5s-1-.7-1.3-1.3a10 10 0 0 1-1-2.3 15.1 15.1 0 0 1 .1-6.3c.2-1 .5-1.7.9-2.3a3.4 3.4 0 0 1 3-2c.6 0 1.2.2 1.7.5.6.3 1 .7 1.4 1.3.4.6.7 1.4 1 2.3l.2 3.2c0 1.1 0 2.2-.3 3.1-.2 1-.5 1.7-.9 2.3a4 4 0 0 1-1.4 1.5c-.5.3-1 .5-1.7.5zm0-1c.9 0 1.6-.6 2.1-1.6.6-1 1-2.6 1-4.8 0-1-.2-2-.3-2.8a7 7 0 0 0-.7-2 2 2 0 0 0-1-1c-.3-.3-.7-.4-1-.4-.9 0-1.6.5-2.2 1.5-.6 1-.9 2.6-.9 4.7a13 13 0 0 0 .9 4.9c.3.4.6.8 1 1 .3.3.7.4 1.1.4zm10.7 0c.9 0 1.6-.6 2.1-1.7.6-1 .8-2.7.8-5 0-1.8-.2-3.3-.7-4.3-.4-1-1-1.5-1.9-1.5-.3 0-.6 0-.9.2l-.8.6a5 5 0 0 0-.7 1l-.5 1v8c.2.5.6 1 1 1.2.4.3 1 .4 1.6.4zm-.1 1a3 3 0 0 1-2.5-1.3v5.4h-1.3V6.9h1.1l.1 2.3c.3-.7.7-1.3 1.3-1.8.5-.5 1.1-.8 2-.8.5 0 1 .2 1.5.5s.9.8 1.2 1.4a12.7 12.7 0 0 1 1 5 11 11 0 0 1-1.2 5.8c-.9 1.3-2 2-3.2 2zm8.2-.3h-1.3v-14h1.3v6.6l4.7-6.6h1.3l-4.6 6.5 5 7.6h-1.5l-5-7.3V21zm14.6-9.8a17 17 0 0 1 0-2l-.4 1-.4.9-4.6 9.9h-1v-14h1.1v9.8a17.7 17.7 0 0 1 0 2 8.6 8.6 0 0 1 .8-1.9l4.6-10h1.1V21h-1.2v-9.8z"/></g></svg>